Coordinates
version=1
nRows=36
nColumns=33
inDegrees=yes

Units are S.I. units (second, meters, Newtons, ...)
Angles are in degrees.

endheader
time	ground_thorax_rot_x	ground_thorax_rot_y	ground_thorax_rot_z	ground_thorax_tx	ground_thorax_ty	ground_thorax_tz	clav_prot_r	clav_elev_r	scapula_abduction_r	scapula_elevation_r	scapula_upward_rot_r	scapula_winging_r	shoulder_elv_r	plane_of_elev_r	axial_rot_r	elbow_flexion_r	pro_sup_r	wrist_flex_r	wrist_dev_r	clav_prot_l	clav_elev_l	scapula_abduction_l	scapula_elevation_l	scapula_upward_rot_l	scapula_winging_l	shoulder_elv_l	plane_of_elev_l	axial_rot_l	elbow_flexion_l	pro_sup_l	wrist_flex_l	wrist_dev_l	
3.6500	-2.261557	2.392449	12.497178	-0.114453	1.026430	0.012852	13.091035	-14.037053	25.761098	-8.883473	6.158749	-5.352368	-22.781843	-65.700165	108.720869	-73.928955	-171.442590	21.120900	-10.014911	15.605459	-7.298149	-22.011630	-12.838597	-31.490826	3.808133	61.474305	-15.050800	11.501085	55.273892	18.360537	14.496699	-15.732500	
3.6600	-2.181577	2.350057	12.555112	-0.114729	1.026633	0.012973	12.784815	-14.074115	24.845951	-8.638628	5.391004	-4.959470	-23.725196	-66.472613	108.249675	-74.913161	-171.093553	22.855755	-11.125853	15.267390	-7.020143	-21.455981	-13.241039	-31.766207	3.517573	61.437001	-16.053204	11.199803	56.787378	17.752802	14.228582	-15.915260	
3.6700	-2.104665	2.309681	12.594361	-0.114960	1.026886	0.013091	12.459385	-14.105942	23.925458	-8.401297	4.663694	-4.564434	-24.714266	-67.246828	107.732683	-75.772096	-170.600378	24.734694	-12.333080	14.910212	-6.742779	-20.861945	-13.624386	-31.998819	3.212270	61.390884	-17.084376	10.863213	58.232276	17.144964	13.873718	-16.151710	
3.6800	-2.022891	2.259759	12.632120	-0.115174	1.027119	0.013210	12.133068	-14.076401	23.039262	-8.127592	3.994622	-4.214661	-25.722155	-68.000963	107.233678	-76.520566	-170.011226	26.565330	-13.497577	14.549735	-6.448281	-20.259826	-14.020530	-32.222494	2.903867	61.310940	-18.109446	10.542470	59.606596	16.573248	13.463533	-16.449040	
3.6900	-1.937536	2.209126	12.665075	-0.115359	1.027370	0.013329	11.803093	-14.010911	22.178368	-7.838973	3.378374	-3.892758	-26.776123	-68.735425	106.697133	-77.139024	-169.274387	28.433214	-14.688339	14.175877	-6.150578	-19.629392	-14.408406	-32.419076	2.584942	61.215484	-19.146475	10.189809	60.894753	16.019272	12.970297	-16.827073	
3.7000	-1.844363	2.143700	12.703860	-0.115548	1.027567	0.013443	11.488249	-13.863820	21.381789	-7.500112	2.830661	-3.639377	-27.838088	-69.434403	106.200704	-77.650804	-168.461976	30.137811	-15.760687	13.807113	-5.831009	-19.006495	-14.822797	-32.626808	2.268521	61.085627	-20.156514	9.869525	62.103494	15.529032	12.445422	-17.275523	
3.7100	-1.751307	2.079754	12.738578	-0.115718	1.027792	0.013553	11.179857	-13.697079	20.621234	-7.159766	2.330757	-3.408997	-28.951200	-70.106455	105.646740	-78.030529	-167.510126	31.853347	-16.849013	13.426607	-5.515642	-18.357708	-15.224542	-32.812315	1.941744	60.961603	-21.179882	9.496718	63.217636	15.064014	11.855569	-17.805202	
3.7200	-1.656744	2.003428	12.771804	-0.115898	1.027971	0.013649	10.892578	-13.471429	19.929286	-6.788485	1.894548	-3.235636	-30.067026	-70.738331	105.124262	-78.304173	-166.511590	33.389866	-17.807153	13.055627	-5.183638	-17.723941	-15.648846	-33.010763	1.620323	60.821837	-22.174117	9.145640	64.251676	14.670491	11.260539	-18.388965	
3.7300	-1.563034	1.926127	12.806471	-0.116073	1.028151	0.013736	10.619168	-13.223353	19.280993	-6.411156	1.499722	-3.088938	-31.207255	-71.338526	104.579017	-78.456546	-165.430792	34.869215	-18.719888	12.684958	-4.851467	-17.086879	-16.071016	-33.201515	1.296996	60.683359	-23.165760	8.762863	65.194084	14.328661	10.640068	-19.027671	
3.7400	-1.469621	1.841841	12.838604	-0.116247	1.028308	0.013814	10.364030	-12.938913	18.691310	-6.022042	1.162789	-2.982796	-32.363770	-71.897765	104.030513	-78.490432	-164.262882	36.242908	-19.530061	12.319880	-4.510441	-16.455198	-16.500511	-33.388041	0.976935	60.540010	-24.138587	8.369763	66.041896	14.073120	10.002745	-19.735334	
3.7500	-1.377288	1.757127	12.869415	-0.116404	1.028483	0.013886	10.122019	-12.646921	18.143744	-5.642319	0.869779	-2.894982	-33.560868	-72.421911	103.430244	-78.394022	-162.978403	37.607509	-20.315407	11.951399	-4.174516	-15.811352	-16.916337	-33.552750	0.653218	60.399597	-25.113807	7.932006	66.786782	13.882862	9.325674	-20.507801	
3.7600	-1.286908	1.666846	12.886200	-0.116536	1.028660	0.013948	9.898945	-12.340234	17.661452	-5.277539	0.649610	-2.839165	-34.832688	-72.897528	102.750944	-78.165153	-161.543652	38.950226	-21.067019	11.577227	-3.836307	-15.148594	-17.319713	-33.683390	0.326362	60.258453	-26.082940	7.453646	67.427638	13.781418	8.592534	-21.361858	
3.7700	-1.196017	1.571988	12.902181	-0.116655	1.028839	0.014001	9.698898	-12.026849	17.236558	-4.922771	0.471808	-2.807054	-36.147453	-73.326508	102.015661	-77.822019	-160.048577	40.236767	-21.785245	11.206537	-3.502944	-14.486462	-17.711782	-33.797583	0.001169	60.106166	-27.042893	6.953475	67.972059	13.753036	7.837931	-22.220970	
3.7800	-1.101945	1.479398	12.913186	-0.116748	1.029017	0.014045	9.521214	-11.703152	16.875091	-4.581552	0.352234	-2.803044	-37.552968	-73.698616	101.165204	-77.358626	-158.421868	41.527132	-22.497103	10.831133	-3.173255	-13.807023	-18.083824	-33.874117	-0.325823	59.947935	-27.992410	6.397430	68.411431	13.820794	7.025778	-23.071396	
3.7900	-1.008715	1.386589	12.930816	-0.116845	1.029172	0.014073	9.371466	-11.375057	16.566064	-4.241586	0.247592	-2.819371	-38.950386	-74.015752	100.300987	-76.811521	-156.849303	42.704436	-23.133264	10.476338	-2.850245	-13.162390	-18.453052	-33.957643	-0.639127	59.770320	-28.912237	5.852190	68.775454	13.969684	6.233793	-23.782749	
3.8000	-0.917654	1.298576	12.951634	-0.116940	1.029300	0.014087	9.245315	-11.047107	16.303173	-3.908015	0.159840	-2.851839	-40.337361	-74.276653	99.417900	-76.182258	-155.320389	43.794943	-23.694473	10.141661	-2.534494	-12.551182	-18.815804	-34.041668	-0.937793	59.577665	-29.798525	5.308098	69.061836	14.205740	5.449419	-24.348612	
3.8100	-0.833967	1.219085	12.976465	-0.117037	1.029386	0.014093	9.135428	-10.719605	16.067473	-3.575882	0.075280	-2.893135	-41.653556	-74.473441	98.568439	-75.490970	-153.919846	44.767239	-24.112366	9.841075	-2.220786	-11.999605	-19.183336	-34.140838	-1.212781	59.364986	-30.635520	4.796621	69.289181	14.553925	4.685288	-24.691692	
3.8200	-0.755167	1.154893	12.996099	-0.117114	1.029473	0.014097	9.032254	-10.408637	15.853453	-3.268775	0.015043	-2.934609	-42.955844	-74.613654	97.678986	-74.715370	-152.534885	45.738988	-24.454359	9.555525	-1.919736	-11.470324	-19.529957	-34.221209	-1.474794	59.145634	-31.435373	4.269161	69.423316	15.006410	3.881494	-24.897741	
3.8300	-0.686917	1.091610	12.996996	-0.117165	1.029563	0.014098	8.942937	-10.119299	15.689696	-3.005535	0.013002	-2.987227	-44.296245	-74.685914	96.703677	-73.859965	-151.192945	46.693843	-24.682631	9.283731	-1.629561	-10.959413	-19.853924	-34.275880	-1.723562	58.909722	-32.201688	3.760412	69.476709	15.595159	2.997566	-24.970498	
3.8400	-0.620214	1.025445	12.987251	-0.117203	1.029670	0.014098	8.872482	-9.855486	15.578930	-2.783932	0.055666	-3.050314	-45.662113	-74.709558	95.657621	-72.944774	-149.906904	47.600374	-24.837958	9.023460	-1.360990	-10.466056	-20.148017	-34.311648	-1.960519	58.653708	-32.931583	3.275173	69.418794	16.263953	2.077903	-25.000000	
3.8500	-0.552188	0.958612	12.968573	-0.117219	1.029778	0.014100	8.816612	-9.610153	15.510416	-2.594809	0.135885	-3.122438	-47.027362	-74.680977	94.556455	-71.991062	-148.680240	48.447285	-24.926850	8.774727	-1.111881	-9.990553	-20.415034	-34.330406	-2.185617	58.375760	-33.615385	2.822308	69.250702	17.001182	1.146149	-25.000000	
3.8600	-0.482807	0.895838	12.954878	-0.117234	1.029876	0.014105	8.771650	-9.380930	15.463482	-2.423205	0.222971	-3.195802	-48.314610	-74.617982	93.486371	-71.023899	-147.520744	49.188888	-24.978224	8.546629	-0.874074	-9.550814	-20.669158	-34.345637	-2.394832	58.072186	-34.229859	2.413660	68.954686	17.764870	0.294443	-25.000000	
3.8700	-0.417131	0.834109	12.944349	-0.117231	1.029955	0.014113	8.732284	-9.167001	15.430816	-2.269833	0.320222	-3.268052	-49.513628	-74.518393	92.459530	-70.052096	-146.408670	49.833887	-25.000000	8.336642	-0.646105	-9.142271	-20.910830	-34.355430	-2.589349	57.745903	-34.782293	2.060995	68.553116	18.554455	-0.481877	-25.000000	
3.8800	-0.355197	0.776183	12.949932	-0.117236	1.030013	0.014122	8.692984	-8.972338	15.381656	-2.119086	0.381562	-3.324256	-50.512050	-74.405211	91.596240	-69.105745	-145.408557	50.323339	-25.000000	8.157757	-0.434108	-8.794327	-21.147216	-34.388925	-2.761448	57.401136	-35.264032	1.784247	68.052081	19.309731	-1.098148	-25.000000	
3.8900	-0.296423	0.724621	12.959305	-0.117220	1.030049	0.014136	8.648731	-8.786577	15.327038	-1.979188	0.449089	-3.374511	-51.385906	-74.268887	90.816183	-68.170625	-144.373532	50.755019	-25.000000	7.995628	-0.232027	-8.473908	-21.364401	-34.403866	-2.917819	57.036744	-35.690105	1.551949	67.469959	20.103032	-1.651341	-25.000000	
3.9000	-0.244436	0.673811	12.973807	-0.117202	1.030082	0.014149	8.606657	-8.618814	15.280104	-1.858486	0.523328	-3.421076	-52.152723	-74.115146	90.114723	-67.246103	-143.325461	51.120521	-25.000000	7.851403	-0.046479	-8.184859	-21.557485	-34.404253	-3.056861	56.658732	-36.071222	1.365040	66.819025	20.924590	-2.147521	-25.000000	
3.9100	-0.195845	0.611521	12.986314	-0.117185	1.030123	0.014161	8.587838	-8.467074	15.296833	-1.772139	0.645282	-3.488624	-52.940730	-73.929713	89.368996	-66.322455	-142.221581	51.442638	-25.000000	7.716252	0.111985	-7.908670	-21.703924	-34.364773	-3.180276	56.256940	-36.441113	1.219085	66.126259	21.840639	-2.679983	-25.000000	
3.9200	-0.148645	0.540644	13.005453	-0.117194	1.030182	0.014169	8.591722	-8.343102	15.353953	-1.710559	0.766571	-3.561828	-53.682116	-73.729473	88.649872	-65.427961	-141.208877	51.669942	-25.000000	7.596297	0.226862	-7.665998	-21.806729	-34.326733	-3.285036	55.858256	-36.797051	1.113753	65.405682	22.740229	-3.176271	-25.000000	
3.9300	-0.101488	0.465983	13.026414	-0.117224	1.030249	0.014173	8.611676	-8.243359	15.440198	-1.670799	0.887677	-3.637605	-54.365888	-73.518889	87.969036	-64.570150	-140.300541	51.809044	-25.000000	7.490354	0.307009	-7.453444	-21.874350	-34.289228	-3.373245	55.466872	-37.122487	1.042008	64.664530	23.607469	-3.624638	-25.000000	
3.9400	-0.061062	0.394551	13.051838	-0.117270	1.030326	0.014169	8.630020	-8.178201	15.509421	-1.648118	0.974708	-3.692542	-54.924085	-73.315156	87.400316	-63.764863	-139.596520	51.864760	-25.000000	7.397824	0.355779	-7.275337	-21.925183	-34.283565	-3.449105	55.118483	-37.400931	0.987596	63.914326	24.332758	-3.964230	-25.000000	
3.9500	-0.030413	0.328395	13.070503	-0.117317	1.030400	0.014154	8.639731	-8.137798	15.562210	-1.645044	1.054959	-3.731858	-55.375836	-73.113262	86.932625	-63.010234	-139.054761	51.856166	-25.000000	7.315656	0.395722	-7.118757	-21.970990	-34.286747	-3.516719	54.800506	-37.613607	0.949945	63.160227	24.954408	-4.208618	-25.000000	
3.9600	-0.009354	0.270336	13.090199	-0.117369	1.030471	0.014126	8.631105	-8.126825	15.564887	-1.650930	1.092753	-3.738883	-55.658243	-72.934312	86.631357	-62.330565	-138.734550	51.784837	-25.000000	7.245685	0.420213	-6.992716	-22.018052	-34.325736	-3.576581	54.533575	-37.761608	0.925090	62.417708	25.397573	-4.317218	-25.000000	
3.9700	0.003238	0.221742	13.105692	-0.117411	1.030528	0.014092	8.604967	-8.128030	15.537624	-1.667476	1.129476	-3.729852	-55.843382	-72.763250	86.423217	-61.715852	-138.503228	51.708348	-25.000000	7.183097	0.448260	-6.879130	-22.066788	-34.361526	-3.631434	54.297010	-37.847745	0.898152	61.692855	25.761831	-4.360372	-25.000000	
3.9800	0.010065	0.181378	13.126002	-0.117455	1.030577	0.014056	8.569025	-8.144304	15.484043	-1.688742	1.144737	-3.704081	-55.927871	-72.600414	86.303377	-61.181139	-138.380741	51.622585	-25.000000	7.130544	0.460280	-6.788657	-22.104966	-34.410000	-3.677199	54.101784	-37.900760	0.868210	61.008507	26.027774	-4.345814	-25.000000	
3.9900	0.012002	0.146990	13.143982	-0.117497	1.030623	0.014020	8.534570	-8.164782	15.440778	-1.720234	1.175388	-3.681655	-55.988657	-72.420497	86.191394	-60.712646	-138.291422	51.537963	-25.000000	7.085860	0.462493	-6.711468	-22.124782	-34.441903	-3.713292	53.926574	-37.934063	0.836557	60.371202	26.283875	-4.333463	-25.000000	
4.0000	0.011122	0.119186	13.166149	-0.117540	1.030669	0.013988	8.503569	-8.189889	15.402522	-1.754797	1.203427	-3.659501	-56.011109	-72.224722	86.096108	-60.324716	-138.272885	51.444415	-25.000000	7.050647	0.440611	-6.655570	-22.120017	-34.474341	-3.737543	53.783202	-37.964971	0.802843	59.789971	26.499809	-4.318673	-25.000000	
